<svg width="22" height="22" viewBox="0 0 22 22" fill="none" xmlns="http://www.w3.org/2000/svg">
<path fill-rule="evenodd" clip-rule="evenodd" d="M10.9426 0.25H12.5C12.9142 0.25 13.25 0.58579 13.25 1C13.25 1.41421 12.9142 1.75 12.5 1.75H11C8.62177 1.75 6.91356 1.75159 5.61358 1.92637C4.33517 2.09825 3.56445 2.42514 2.9948 2.9948C2.23505 3.75455 1.91245 4.86509 1.80417 7.03734C1.78355 7.45104 1.43146 7.76969 1.01776 7.74907C0.60406 7.72845 0.28541 7.37636 0.30603 6.96266C0.41642 4.74802 0.74641 3.12187 1.93414 1.93414C2.82895 1.03933 3.96897 0.63399 5.41371 0.43975C6.82519 0.24998 8.63423 0.24999 10.9426 0.25ZM21 8.75C21.4142 8.75 21.75 9.0858 21.75 9.5V11.0574C21.75 13.3658 21.75 15.1748 21.5603 16.5863C21.366 18.031 20.9607 19.1711 20.0659 20.0659C19.1711 20.9607 18.031 21.366 16.5863 21.5603C15.1748 21.75 13.3658 21.75 11.0574 21.75H10.9426C8.63423 21.75 6.82519 21.75 5.41371 21.5603C3.96897 21.366 2.82895 20.9607 1.93414 20.0659C1.03933 19.1711 0.63399 18.031 0.43975 16.5863C0.24998 15.1748 0.24999 13.3658 0.25 11.0574V11C0.25 10.5858 0.58579 10.25 1 10.25C1.41421 10.25 1.75 10.5858 1.75 11C1.75 13.3782 1.75159 15.0864 1.92637 16.3864C2.09825 17.6648 2.42514 18.4355 2.9948 19.0052C3.56445 19.5749 4.33517 19.9018 5.61358 20.0736C6.91356 20.2484 8.62177 20.25 11 20.25C13.3782 20.25 15.0864 20.2484 16.3864 20.0736C17.6648 19.9018 18.4355 19.5749 19.0052 19.0052C19.5749 18.4355 19.9018 17.6648 20.0736 16.3864C20.2484 15.0864 20.25 13.3782 20.25 11V9.5C20.25 9.0858 20.5858 8.75 21 8.75Z" fill="#111111"/>
<path fill-rule="evenodd" clip-rule="evenodd" d="M15.7705 1.27592C17.1384 -0.0919727 19.3562 -0.0919727 20.7241 1.27592C22.092 2.6438 22.092 4.86158 20.7241 6.22947L17.0928 9.8607C16.7999 10.1536 16.3251 10.1536 16.0322 9.8607C15.7393 9.5678 15.7393 9.093 16.0322 8.80006L18.1051 6.72709C17.5892 6.50519 16.9882 6.14946 16.4193 5.58065C15.8505 5.01185 15.4948 4.41082 15.2729 3.89486L10.2175 8.95026C9.80102 9.3668 9.63762 9.532 9.49882 9.71C9.32742 9.9297 9.18042 10.1676 9.06052 10.4192C8.96339 10.623 8.8887 10.8429 8.70242 11.4017L8.27053 12.6974L9.30262 13.7295L10.5983 13.2976C11.1571 13.1113 11.377 13.0366 11.5808 12.9395C11.8324 12.8196 12.0703 12.6726 12.2901 12.5012C12.468 12.3624 12.6332 12.199 13.0497 11.7825C13.3426 11.4896 13.8175 11.4896 14.1104 11.7825C14.4033 12.0754 14.4033 12.5503 14.1104 12.8432L14.076 12.8776C13.7047 13.2489 13.4721 13.4815 13.2126 13.684C12.9069 13.9224 12.5761 14.1268 12.2261 14.2936C11.929 14.4352 11.6169 14.5392 11.1188 14.7052L8.21428 15.6734C7.67803 15.8521 7.08682 15.7126 6.68713 15.3129C6.28744 14.9132 6.14787 14.322 6.32662 13.7857L7.29479 10.8812C7.46081 10.3831 7.56481 10.071 7.70642 9.7739C7.87321 9.4239 8.07763 9.0931 8.31607 8.78742C8.51851 8.52787 8.75112 8.29529 9.12242 7.92401L15.7705 1.27592ZM16.4546 2.7132C16.4773 2.80906 16.509 2.92327 16.5532 3.05066C16.6965 3.46372 16.9677 4.00771 17.48 4.51999C17.9923 5.03227 18.5363 5.30346 18.9493 5.44677C19.0767 5.49097 19.1909 5.52273 19.2868 5.54543L19.6634 5.16881C20.4455 4.38671 20.4455 3.11867 19.6634 2.33658C18.8813 1.55448 17.6133 1.55448 16.8312 2.33658L16.4546 2.7132Z" fill="#111111"/>
</svg>
