<svg width="22" height="29" viewBox="0 0 22 29" fill="none" xmlns="http://www.w3.org/2000/svg">
<path d="M1.95053 0.0590545C1.03398 0.234721 0.237729 1.03938 0.0601484 1.98005C-0.0200495 2.39371 -0.0200495 26.613 0.0601484 27.0266C0.243458 27.9956 1.03971 28.7776 2.00781 28.9533C2.21403 28.993 5.674 29.0043 11.9867 28.9986L21.6563 28.9816L21.7995 28.8343C22.0344 28.6076 22.0458 28.3356 21.8453 27.9786C21.347 27.1003 21.3298 26.273 21.7766 25.3436L22 24.8733V12.6843C22 1.90638 21.9885 0.484053 21.9141 0.33672C21.725 -0.0259453 22.4468 -0.00327866 11.8492 0.00238798C6.54472 0.00805463 2.09374 0.0307212 1.95053 0.0590545ZM20.7684 12.69V24.165L11.2879 24.1933L1.80732 24.2216L1.53235 24.3463C1.37769 24.42 1.2402 24.4766 1.22875 24.4766C1.21729 24.4766 1.20583 19.5183 1.20583 13.455C1.20583 5.55004 1.22302 2.35405 1.26885 2.14438C1.35477 1.75338 1.75576 1.33405 2.12811 1.25472C2.2885 1.22072 5.74847 1.20372 11.5743 1.20938L20.7684 1.21505V12.69ZM20.3674 25.6723C20.2013 26.2843 20.207 26.885 20.3731 27.6613L20.4075 27.82H11.4425C5.04387 27.82 2.38589 27.803 2.17394 27.7576C1.75576 27.667 1.3605 27.2816 1.27457 26.8793C1.14282 26.2786 1.41206 25.7516 1.97917 25.491C2.19685 25.389 2.56347 25.3833 11.328 25.3833H20.4419L20.3674 25.6723Z" fill="black"/>
<path d="M10.2911 7.34103C9.76981 7.46569 9.21988 7.78303 8.83608 8.17402L8.4981 8.52536L8.03983 8.50836C6.35567 8.44036 4.91784 9.78902 4.91211 11.4437C4.91211 12.2823 5.20426 13.002 5.79429 13.5857L6.12653 13.92L6.14372 15.9827L6.16091 18.0453L6.31557 18.3287C6.49888 18.6687 6.81395 18.9747 7.16338 19.156L7.42116 19.292H11.0014H14.5817L14.8395 19.156C15.1889 18.9747 15.504 18.6687 15.6873 18.3287L15.8419 18.0453L15.8591 15.9827L15.8763 13.92L16.2086 13.5857C16.7986 13.002 17.0907 12.2823 17.0907 11.4437C17.085 9.78902 15.6472 8.44036 13.963 8.50836L13.5047 8.52536L13.1668 8.17402C12.4278 7.41469 11.3222 7.09169 10.2911 7.34103ZM11.5743 8.56502C12.233 8.76902 12.7371 9.38669 12.8173 10.1007C12.8632 10.486 12.9663 10.6844 13.1839 10.7977C13.4303 10.9223 13.7052 10.86 13.8943 10.639C14.0318 10.4804 14.0432 10.4237 14.026 10.0667L14.0088 9.67569L14.301 9.70402C14.8624 9.76069 15.4008 10.1404 15.6873 10.6787C15.819 10.9224 15.8419 11.03 15.8419 11.472C15.8419 12.0783 15.7216 12.3787 15.3436 12.73C15.2118 12.849 15.0056 13.036 14.8853 13.1493L14.6676 13.359V14.5263V15.6937H11.0014H7.33523V14.5263V13.359L7.11755 13.1493C6.99725 13.036 6.79103 12.849 6.65928 12.73C6.2812 12.3787 6.16091 12.0783 6.16091 11.472C6.16091 11.03 6.18382 10.9224 6.31557 10.6787C6.60199 10.1404 7.14047 9.76069 7.70185 9.70402L7.994 9.67569L7.97681 10.0667C7.95963 10.4237 7.97109 10.4804 8.10857 10.639C8.29761 10.86 8.57257 10.9223 8.81889 10.7977C9.03657 10.6844 9.13968 10.486 9.18551 10.1007C9.23134 9.68702 9.42038 9.29035 9.70107 9.01836C10.2338 8.50836 10.8754 8.35536 11.5743 8.56502ZM14.6676 17.2803C14.6676 17.6883 14.5588 17.9263 14.3239 18.0453C14.0719 18.1757 7.93099 18.1757 7.67894 18.0453C7.44407 17.9263 7.33523 17.6883 7.33523 17.2803V16.9403H11.0014H14.6676V17.2803Z" fill="black"/>
<path fill-rule="evenodd" clip-rule="evenodd" d="M1 1H6H16H21V25H16H6H1V1ZM7 19V13.5H6V9.5H9V8H13V9.5H16V13.5H15V19H7Z" fill="black"/>
</svg>
