<svg width="500" height="500" viewBox="0 0 500 500" fill="none" xmlns="http://www.w3.org/2000/svg">
<path d="M84.0333 500H399.2C408.041 500 416.519 496.708 422.77 490.847C429.021 484.987 432.533 477.038 432.533 468.75V140.625C432.533 136.481 430.777 132.507 427.652 129.576C424.526 126.646 420.287 125 415.867 125H133.333C132.5 125 130.867 125.125 129.3 125.219L84.0333 125C56.0667 125 33.3333 104.969 33.3333 78.7812C33.3333 52.5625 55.3667 31.25 83.3333 31.25H466.667V390.625C466.667 399.25 473.333 406.25 482.567 406.25C491.8 406.25 500 399.25 500 390.625V15.625C500 7 491.767 0 482.567 0H84.0333C61.9736 0.00632787 40.8033 8.15422 25.1021 22.6811C9.40091 37.208 0.4312 56.9459 0.133333 77.625L0 77.4688V421.219C0.00441869 442.112 8.85932 462.147 24.6177 476.921C40.376 491.694 61.7477 499.996 84.0333 500Z" fill="black"/>
</svg>
