<svg width="500" height="500" viewBox="0 0 500 500" fill="none" xmlns="http://www.w3.org/2000/svg">
<path d="M425 50H400V25C400 10 390 0 375 0C360 0 350 10 350 25V50H150V25C150 10 140 0 125 0C110 0 100 10 100 25V50H75C32.5 50 0 82.5 0 125V150H500V125C500 82.5 467.5 50 425 50ZM0 425C0 467.5 32.5 500 75 500H425C467.5 500 500 467.5 500 425V200H0V425ZM375 250C390 250 400 260 400 275C400 290 390 300 375 300C360 300 350 290 350 275C350 260 360 250 375 250ZM375 350C390 350 400 360 400 375C400 390 390 400 375 400C360 400 350 390 350 375C350 360 360 350 375 350ZM250 250C265 250 275 260 275 275C275 290 265 300 250 300C235 300 225 290 225 275C225 260 235 250 250 250ZM250 350C265 350 275 360 275 375C275 390 265 400 250 400C235 400 225 390 225 375C225 360 235 350 250 350ZM125 250C140 250 150 260 150 275C150 290 140 300 125 300C110 300 100 290 100 275C100 260 110 250 125 250ZM125 350C140 350 150 360 150 375C150 390 140 400 125 400C110 400 100 390 100 375C100 360 110 350 125 350Z" fill="black"/>
</svg>
