<svg width="12" height="10" viewBox="0 0 12 10" fill="none" xmlns="http://www.w3.org/2000/svg">
<path d="M6 10C5.88393 10 5.78571 9.96094 5.70536 9.88281L1.52679 5.96354C1.48214 5.92882 1.42076 5.8724 1.34263 5.79427C1.26451 5.71615 1.14063 5.574 0.970982 5.36784C0.801339 5.16168 0.649554 4.95009 0.515625 4.73307C0.381696 4.51606 0.262277 4.25347 0.157366 3.94531C0.0524554 3.63715 0 3.33767 0 3.04687C0 2.09201 0.283482 1.34549 0.850446 0.807292C1.41741 0.269097 2.20089 0 3.20089 0C3.47768 0 3.76004 0.046658 4.04799 0.139974C4.33594 0.23329 4.60379 0.359158 4.85156 0.517578C5.09933 0.675998 5.3125 0.824653 5.49107 0.963542C5.66964 1.10243 5.83929 1.25 6 1.40625C6.16071 1.25 6.33036 1.10243 6.50893 0.963542C6.6875 0.824653 6.90067 0.675998 7.14844 0.517578C7.39621 0.359158 7.66406 0.23329 7.95201 0.139974C8.23996 0.046658 8.52232 0 8.79911 0C9.79911 0 10.5826 0.269097 11.1496 0.807292C11.7165 1.34549 12 2.09201 12 3.04687C12 4.00608 11.4888 4.98264 10.4665 5.97656L6.29464 9.88281C6.21429 9.96094 6.11607 10 6 10Z" fill="#DC2100"/>
</svg>
