<svg width="500" height="500" viewBox="0 0 500 500" fill="none" xmlns="http://www.w3.org/2000/svg">
<path d="M174.835 469.552V392.881C174.835 373.452 191.465 357.667 212.064 357.545H287.7C308.391 357.545 325.165 373.365 325.165 392.881V469.33C325.164 486.181 339.58 499.876 357.446 499.999H409.048C433.148 500.057 456.283 491.069 473.347 475.017C490.41 458.965 500 437.168 500 414.437V196.646C500 178.284 491.37 160.868 476.437 149.087L301.131 16.8567C270.487 -6.27193 226.72 -5.52479 196.984 18.6346L25.4477 149.087C9.80896 160.52 0.461902 177.989 0 196.646V414.215C0 461.592 40.7206 499.999 90.9519 499.999H141.376C149.978 500.058 158.25 496.876 164.355 491.16C170.459 485.444 173.893 477.666 173.893 469.552H174.835Z" fill="black"/>
</svg>
