<svg width="100" height="87" viewBox="0 0 100 87" fill="none" xmlns="http://www.w3.org/2000/svg">
<path d="M33.44 39.3591C35.27 37.5291 37.752 36.501 40.34 36.501C41.6214 36.501 42.8903 36.7534 44.0743 37.2438C45.2582 37.7342 46.3339 38.4529 47.24 39.3591C48.1461 40.2652 48.8649 41.3409 49.3553 42.5248C49.8457 43.7087 50.0981 44.9776 50.0981 46.2591C50.0981 47.5405 49.8457 48.8094 49.3553 49.9933C48.8649 51.1772 48.1461 52.2529 47.24 53.1591L22.4 77.999L4 82.599L8.6 64.199L33.44 39.3591Z" stroke="black" stroke-width="8" stroke-linecap="round" stroke-linejoin="round"/>
<path d="M4 43.4999V13.5999C4 11.1599 4.96928 8.81985 6.69462 7.09452C8.41995 5.36918 10.76 4.3999 13.2 4.3999H31.14C34.36 4.3999 37.12 5.7799 38.96 8.5399L42.64 14.0599C44.48 16.8199 47.24 18.1999 50.46 18.1999H86.8C89.24 18.1999 91.58 19.1692 93.3054 20.8945C95.0307 22.6199 96 24.9599 96 27.3999V73.3999C96 75.8399 95.0307 78.1799 93.3054 79.9053C91.58 81.6306 89.24 82.5999 86.8 82.5999H43.1" stroke="black" stroke-width="8" stroke-linecap="round" stroke-linejoin="round"/>
</svg>
